<?xml version="1.0" encoding="UTF-8"?><svg id="Working" xmlns="http://www.w3.org/2000/svg" viewBox="0 0 974.51637 300"><defs><style>.cls-1{fill:none;stroke:#fff;stroke-miterlimit:10;stroke-width:3px;}.cls-2{fill:#fff;}</style></defs><path class="cls-1" d="M88.44353,230.30239c0-50.68555,41.08866-91.77422,91.77405-91.77422v45.88711c-25.34269,0-45.88703,20.54433-45.88703,45.88711h-45.88703Z"/><path class="cls-1" d="M88.4434,230.30237c-25.34269,0-45.88703-20.54433-45.88703-45.88711l-.00004-68.83068c0-25.34269,20.54433-45.88703,45.88711-45.88703h45.88708c25.34278,0,45.88711,20.54433,45.88711,45.88703v22.94359H88.44353v80.30242l-.00013,11.47178Z"/><path class="cls-1" d="M180.21771,202.77921c-15.2008,0-27.52323,12.32261-27.52323,27.52323h55.04629c0-15.20063-12.32243-27.52323-27.52306-27.52323Z"/><g><path class="cls-2" d="M273.92973,141.79331c0,13.55432-9.77431,21.66847-26.00333,21.66847h-18.44111v21.11581h-4.70305V120.03188h23.14417c16.22902,0,26.00333,8.11415,26.00333,21.76143Zm-4.79528,0c0-11.15777-7.3763-17.52026-21.20804-17.52026h-18.44111v34.94755h18.44111c13.83174,0,21.20804-6.36249,21.20804-17.4273Z"/><path class="cls-2" d="M328.70622,161.61789h-41.40155c.46115,11.43374,8.852,19.17896,20.37796,19.17896,6.08579,0,11.71043-2.21282,15.39894-6.73068l2.67397,3.0429c-4.2419,5.16348-10.88035,7.83746-18.16515,7.83746-14.56886,0-24.80433-10.14323-24.80433-24.4354s9.86654-24.4354,23.05266-24.4354c13.1854,0,22.95971,9.95877,22.95971,24.25094,0,.36892-.09223,.83008-.09223,1.29123Zm-41.30931-3.59628h36.88295c-.64489-10.4192-8.20638-17.88845-18.44111-17.88845-10.23546,0-17.70399,7.37703-18.44184,17.88845Z"/><path class="cls-2" d="M366.97409,181.5347c-2.39801,2.30505-6.27025,3.41182-9.86654,3.41182-8.48307,0-13.09389-4.97902-13.09389-13.09389v-31.44278h-8.852v-3.96521h8.852v-10.51143h4.61082v10.51143h15.30671v3.96521h-15.30671v30.98162c0,6.17802,3.0429,9.58984,8.94423,9.58984,2.85843,0,5.53241-.92158,7.46853-2.67397l1.93685,3.22736Z"/><path class="cls-2" d="M426.08108,184.57759l-15.39894-21.57697c-2.02836,.27669-4.05671,.46115-6.27025,.46115h-18.44111v21.11581h-4.70305V120.03188h23.14417c16.22902,0,26.00333,8.11415,26.00333,21.76143,0,10.23473-5.53313,17.33507-15.12225,20.1935l16.13607,22.59078h-5.34794Zm-21.6692-25.26475c13.83174,0,21.20804-6.45472,21.20804-17.51953,0-11.15777-7.3763-17.52026-21.20804-17.52026h-18.44111v35.03979h18.44111Z"/><path class="cls-2" d="M440.92881,160.51112c0-14.29217,10.23546-24.4354,24.06648-24.4354,13.83174,0,24.06648,10.14323,24.06648,24.4354s-10.23473,24.4354-24.06648,24.4354c-13.83102,0-24.06648-10.14323-24.06648-24.4354Zm43.43063,0c0-12.07935-8.29861-20.28573-19.36415-20.28573-11.06481,0-19.36342,8.20638-19.36342,20.28573s8.29861,20.28573,19.36342,20.28573c11.06554,0,19.36415-8.20638,19.36415-20.28573Z"/><path class="cls-2" d="M498.10113,160.51112c0-14.3844,10.23546-24.4354,24.34317-24.4354,7.65372,0,14.29217,2.95067,18.25738,8.852l-3.41182,2.49024c-3.50405-4.88752-8.852-7.19256-14.84556-7.19256-11.34151,0-19.64012,8.11415-19.64012,20.28573s8.29861,20.28573,19.64012,20.28573c5.99356,0,11.34151-2.30505,14.84556-7.19184l3.41182,2.48951c-3.96521,5.8091-10.60366,8.852-18.25738,8.852-14.10771,0-24.34317-10.14323-24.34317-24.4354Z"/><path class="cls-2" d="M570.85685,158.85168l-12.54051,11.43374v14.29217h-4.6101V116.15891h4.6101v48.40965l30.79789-28.12391h5.90133l-20.74689,19.45638,22.77524,28.67657h-5.71687l-20.4702-25.72591Z"/><path class="cls-2" d="M626.9224,152.30474c0-18.81076,14.29217-32.73401,33.47186-32.73401,9.12869,0,17.33507,2.95067,22.95971,8.94423l-2.95067,3.0429c-5.53241-5.44018-12.26382-7.65299-19.82458-7.65299-16.50572,0-28.95327,12.17086-28.95327,28.39988s12.44755,28.39988,28.95327,28.39988c7.56076,0,14.29217-2.30505,19.82458-7.74522l2.95067,3.0429c-5.62464,5.99356-13.83102,9.03646-22.95971,9.03646-19.17969,0-33.47186-13.92325-33.47186-32.73401Z"/><path class="cls-2" d="M731.58278,154.0564v30.52119h-4.42636v-8.5753c-3.0429,5.53241-8.94423,8.94423-17.33507,8.94423-10.78812,0-17.33507-5.53241-17.33507-13.73879,0-7.2848,4.61082-13.46282,17.98068-13.46282h16.50499v-3.87298c0-8.94423-4.88679-13.73879-14.29217-13.73879-6.63845,0-12.63201,2.48951-16.59722,6.08579l-2.30505-3.31959c4.79456-4.24117,11.80266-6.82364,19.27119-6.82364,11.89489,0,18.53407,6.08579,18.53407,17.98068Zm-4.61082,16.32125v-9.03646h-16.41276c-9.95877,0-13.46209,4.14894-13.46209,9.68207,0,6.26953,4.88679,10.1425,13.36986,10.1425,8.11415,0,13.73879-3.87298,16.50499-10.78812Z"/><path class="cls-2" d="M798.52795,160.51112c0,14.47663-10.23473,24.4354-23.78978,24.4354-8.48307,0-15.67491-4.14967-19.54789-11.34151v28.86104h-4.6101v-66.02141h4.42563v11.34151c3.78074-7.3763,11.06481-11.71043,19.73235-11.71043,13.55505,0,23.78978,10.051,23.78978,24.4354Zm-4.6101,0c0-12.07935-8.39084-20.28573-19.45565-20.28573-11.06554,0-19.36415,8.20638-19.36415,20.28573s8.29861,20.28573,19.36415,20.28573c11.06481,0,19.45565-8.20638,19.45565-20.28573Z"/><path class="cls-2" d="M811.34806,121.04642c0-2.02908,1.66016-3.78074,3.78074-3.78074s3.78074,1.65943,3.78074,3.68851c0,2.12059-1.66016,3.78002-3.78074,3.78002s-3.78074-1.65943-3.78074-3.68779Zm1.4757,15.39822h4.6101v48.13295h-4.6101v-48.13295Z"/><path class="cls-2" d="M860.77152,181.5347c-2.39801,2.30505-6.27025,3.41182-9.86654,3.41182-8.48307,0-13.09389-4.97902-13.09389-13.09389v-31.44278h-8.852v-3.96521h8.852v-10.51143h4.61082v10.51143h15.30671v3.96521h-15.30671v30.98162c0,6.17802,3.0429,9.58984,8.94423,9.58984,2.85843,0,5.53241-.92158,7.46853-2.67397l1.93685,3.22736Z"/><path class="cls-2" d="M908.35254,154.0564v30.52119h-4.42636v-8.5753c-3.0429,5.53241-8.94423,8.94423-17.33507,8.94423-10.78812,0-17.33507-5.53241-17.33507-13.73879,0-7.2848,4.61082-13.46282,17.98068-13.46282h16.50499v-3.87298c0-8.94423-4.88679-13.73879-14.29217-13.73879-6.63845,0-12.63201,2.48951-16.59722,6.08579l-2.30505-3.31959c4.79456-4.24117,11.80266-6.82364,19.27119-6.82364,11.89489,0,18.53407,6.08579,18.53407,17.98068Zm-4.61082,16.32125v-9.03646h-16.41276c-9.95877,0-13.46209,4.14894-13.46209,9.68207,0,6.26953,4.88679,10.1425,13.36986,10.1425,8.11415,0,13.73879-3.87298,16.50499-10.78812Z"/><path class="cls-2" d="M927.34995,116.15891h4.6101v68.41869h-4.6101V116.15891Z"/></g></svg>